<?xml version="1.0" encoding="UTF-8"?>
<svg id="Layer_1" data-name="Layer 1" xmlns="http://www.w3.org/2000/svg" viewBox="0 0 332 299">
  <defs>
    <style>
      .cls-1 {
        fill: #fff;
      }

      .cls-2 {
        fill: #ccb869;
      }

      .cls-3 {
        fill: #1d1c1a;
      }
    </style>
  </defs>
  <g>
    <polygon class="cls-3" points="165 55.14 71.14 115.5 71.14 236.21 258.86 236.21 258.86 115.5 165 55.14"/>
    <path class="cls-1" d="M259.57,236.92H70.43V115.11l.33-.21,94.24-60.6,94.57,60.81v121.81Zm-187.72-1.42h186.3V115.89l-93.15-59.9-93.15,59.9v119.61Z"/>
  </g>
  <g>
    <rect class="cls-2" x="94.47" y="74.79" width="141.07" height="141.07"/>
    <path class="cls-1" d="M236.42,216.74H93.58V73.9H236.42V216.74Zm-141.07-1.78H234.65V75.67H95.35V214.97Z"/>
  </g>
  <g>
    <polygon class="cls-3" points="165 175.85 71.14 115.5 71.14 236.21 165 175.85"/>
    <path class="cls-1" d="M70.43,237.51V114.2l95.88,61.66-95.88,61.66Zm1.42-120.71v118.11l91.84-59.05-91.84-59.05Z"/>
  </g>
  <g>
    <polygon class="cls-3" points="165 175.85 258.86 115.5 258.86 236.21 165 175.85"/>
    <path class="cls-1" d="M259.57,237.51l-95.88-61.66,95.88-61.66v123.32Zm-93.26-61.66l91.84,59.05V116.8l-91.84,59.05Z"/>
  </g>
  <g>
    <polygon class="cls-3" points="165 164.09 71.14 236.21 258.86 236.21 165 164.09"/>
    <path class="cls-1" d="M260.95,236.92H69.05l95.95-73.73,.43,.33,95.52,73.4Zm-187.72-1.42h183.54l-91.77-70.51-91.77,70.51Z"/>
  </g>
  <circle class="cls-1" cx="165" cy="125.05" r="30.74"/>
  <g>
    <path class="cls-2" d="M256.91,245.7h-35.66c-1.06,0-1.93-.87-1.93-1.93h0c0-1.06,.87-1.93,1.93-1.93h35.66c1.06,0,1.93,.87,1.93,1.93h0c0,1.06-.87,1.93-1.93,1.93Z"/>
    <path class="cls-2" d="M214.72,245.7h-5.24c-1.06,0-1.93-.87-1.93-1.93h0c0-1.06,.87-1.93,1.93-1.93h5.24c1.06,0,1.93,.87,1.93,1.93h0c0,1.06-.87,1.93-1.93,1.93Z"/>
  </g>
  <g>
    <path class="cls-1" d="M103.62,87.53h35.66c1.06,0,1.93-.87,1.93-1.93h0c0-1.06-.87-1.93-1.93-1.93h-35.66c-1.06,0-1.93,.87-1.93,1.93h0c0,1.06,.87,1.93,1.93,1.93Z"/>
    <path class="cls-1" d="M145.81,87.53h5.24c1.06,0,1.93-.87,1.93-1.93h0c0-1.06-.87-1.93-1.93-1.93h-5.24c-1.06,0-1.93,.87-1.93,1.93h0c0,1.06,.87,1.93,1.93,1.93Z"/>
  </g>
  <path class="cls-3" d="M187.63,111.47c0,.89-.33,1.78-1.01,2.49l-26.45,27.56c-.96,1-2.37,1.37-3.67,1.09,0,0,0,0-.01,0-1.11-.16-2.15-.79-2.75-1.79l-10.86-18.06c-1.05-1.75-.42-4,1.4-5.01,.6-.33,1.25-.49,1.9-.49,1.32,0,2.62,.66,3.32,1.83l8.4,13.97,23.09-24.07c1.42-1.48,3.86-1.58,5.4-.21,.82,.72,1.23,1.71,1.23,2.7Z"/>
  <polygon class="cls-2" points="65.08 82.73 70.27 99.33 58.34 81.88 65.08 82.73"/>
  <polygon class="cls-2" points="49.08 137.94 61.74 126.53 42.97 135.3 49.08 137.94"/>
  <polygon class="cls-2" points="33.6 108.49 54.94 108.13 30 100.96 33.6 108.49"/>
  <polygon class="cls-2" points="264.92 82.74 259.73 99.34 271.66 81.88 264.92 82.74"/>
  <polygon class="cls-2" points="280.92 137.94 268.26 126.53 287.03 135.3 280.92 137.94"/>
  <polygon class="cls-2" points="296.4 108.49 275.06 108.14 300 100.96 296.4 108.49"/>
</svg>