<?xml version="1.0" encoding="UTF-8"?>
<svg id="Layer_1" data-name="Layer 1" xmlns="http://www.w3.org/2000/svg" viewBox="0 0 1080 1080">
  <defs>
    <style>
      .cls-1 {
        fill: #fff;
      }

      .cls-2 {
        fill: #1d1c1a;
      }
    </style>
  </defs>
  <circle class="cls-2" cx="546" cy="540" r="519"/>
  <g>
    <path class="cls-1" d="M129.36,707.64v-3.68h7.72c6.87,0,13.8-2.09,20.79-6.25,7-4.17,12.81-10.98,17.48-20.42,4.66-9.45,7-22.26,7-38.45V380.9c0-5.39-.8-9.57-2.39-12.51-1.6-2.94-3.62-5.02-6.07-6.25-2.45-1.22-5.03-1.84-7.73-1.84h-18.03v-3.68h135.03v3.68h-17.65c-2.71,0-5.34,.62-7.91,1.84-2.58,1.23-4.66,3.38-6.25,6.44-1.6,3.07-2.39,7.42-2.39,13.06v237.69c0,16.68-2.94,30.66-8.83,41.94-5.89,11.28-13.8,20.3-23.73,27.04-9.93,6.74-21.03,11.65-33.3,14.72-12.27,3.07-24.9,4.6-37.9,4.6h-15.82Z"/>
    <path class="cls-1" d="M298.61,707.64v-4.91h21.14c5.57,0,10.15-.74,13.76-2.22,3.61-1.47,6.31-4.18,8.12-8.11,1.79-3.93,2.7-9.5,2.7-16.71V390.05c0-7.87-.91-13.77-2.7-17.7-1.81-3.93-4.51-6.71-8.12-8.36-3.61-1.63-8.19-2.46-13.76-2.46h-21.14v-4.92h180.42v4.92h-21.63c-5.25,0-9.67,.82-13.28,2.46-3.61,1.65-6.31,4.42-8.11,8.36-1.8,3.93-2.7,10-2.7,18.19v284.65c0,7.21,.9,12.87,2.7,16.96,1.8,4.1,4.5,6.89,8.11,8.36,3.61,1.47,8.03,2.22,13.28,2.22h21.63v4.91h-180.42Z"/>
    <path class="cls-1" d="M502.63,707.64v-4.91h33.43c5.24,0,9.91-.82,14.02-2.46,4.09-1.63,7.28-4.5,9.58-8.6,2.29-4.1,3.44-9.75,3.44-16.96V390.05c0-7.53-1.07-13.35-3.2-17.45-2.13-4.1-4.91-6.96-8.36-8.61-3.44-1.63-7.29-2.46-11.55-2.46h-37.36v-4.92h149.94l88.01,249.74,76.69-249.74h132.73v4.92h-23.59c-3.62,0-7.13,.82-10.57,2.46-3.44,1.65-6.15,4.42-8.11,8.36-1.97,3.93-2.95,9.51-2.95,16.72v286.61c0,6.88,.9,12.29,2.71,16.22,1.8,3.93,4.59,6.72,8.36,8.36,3.76,1.64,8.11,2.46,13.02,2.46h21.14v4.91h-168.13v-4.91h6.39c6.89,0,12.45-.82,16.71-2.46,4.26-1.63,7.38-4.59,9.34-8.85,1.97-4.26,2.95-10.15,2.95-17.7V373.83l-102.75,333.81h-31.96l-114.55-326.93v291.53c0,8.85,1.48,15.49,4.42,19.91,2.95,4.42,7.13,7.3,12.53,8.61,5.42,1.31,12.04,1.97,19.91,1.97h23.11v4.91h-125.36Z"/>
  </g>
</svg>