<?xml version="1.0" encoding="UTF-8"?>
<svg xmlns="http://www.w3.org/2000/svg" viewBox="0 0 784 511">
  <defs>
    <style>
      .cls-1, .cls-2 {
        fill: #ddd;
      }

      .cls-3 {
        fill: #fff;
      }

      .cls-4 {
        isolation: isolate;
      }

      .cls-5 {
        fill: #333;
      }

      .cls-2 {
        mix-blend-mode: multiply;
      }

      .cls-6 {
        fill: #ccb869;
      }

      .cls-7 {
        fill: #b5b5b5;
      }
    </style>
  </defs>
  <g class="cls-4">
    <g id="Layer_1" data-name="Layer 1">
      <path class="cls-7" d="M376.1,125.73l-3.53,3.11-3.52,3.1-114.54,100.9-5.05,4.45-5.06,4.45h-41.4l10.11-8.91,137.85-121.43,3.51-3.09,3.53-3.11c.56,1.46,1.2,2.87,1.92,4.24,2.91,5.53,7.11,10.29,12.21,13.85,1.27,.89,2.59,1.71,3.97,2.44Z"/>
      <path class="cls-7" d="M585.98,241.74h-41.4l-5.06-4.45-5.05-4.45-114.54-100.9-3.52-3.1-3.53-3.11c1.37-.73,2.7-1.55,3.97-2.44,5.09-3.56,9.3-8.32,12.21-13.85,.72-1.37,1.36-2.78,1.92-4.24l3.53,3.11,3.51,3.09,137.85,121.43,10.11,8.91Z"/>
      <path class="cls-3" d="M532.78,237.29H256.19l-5.05,4.45h286.7l-5.05-4.45Zm99.4,25.71c-1.29-10.75-8.45-19.73-18.17-23.62-3.35-1.34-7.01-2.08-10.83-2.08H185.79c-16.11,0-29.21,13.1-29.21,29.21v151.22c0,.99,.05,1.97,.15,2.93,.28,2.77,.94,5.42,1.94,7.91,.09,.22,.18,.44,.27,.65,2.36,5.49,6.35,10.12,11.36,13.26,3.56,2.23,7.63,3.72,11.99,4.24,1.15,.14,2.32,.21,3.5,.21h417.39c5.69,0,11-1.63,15.49-4.45,5.09-3.2,9.13-7.92,11.48-13.53,1.09-2.6,1.81-5.38,2.1-8.29,.1-.97,.15-1.94,.15-2.93v-151.22c0-1.19-.07-2.36-.21-3.5Zm-29,179.48H185.79c-5.25,0-10.11-1.63-14.11-4.42-6.43-4.47-10.64-11.91-10.64-20.34v-151.22c0-13.67,11.08-24.76,24.76-24.76h417.39c8.43,0,15.87,4.21,20.34,10.64,2.79,4,4.42,8.87,4.42,14.12v151.22c0,13.67-11.08,24.76-24.76,24.76Z"/>
      <rect class="cls-3" x="161.04" y="241.74" width="466.9" height="200.73" rx="24.76" ry="24.76"/>
      <path class="cls-6" d="M437.38,84.1h0c-2.63-15.72-13.72-28.61-28.41-33.81-4.53-1.61-9.41-2.48-14.48-2.48-23.98,0-43.49,19.51-43.49,43.49,0,4.35,.64,8.55,1.84,12.52,.2,.66,.41,1.32,.65,1.96,.3,.86,.63,1.7,.99,2.53,.61,1.42,1.29,2.8,2.03,4.14,3.04,5.44,7.22,10.16,12.21,13.85,1.23,.91,2.52,1.76,3.85,2.54,1.37,.81,2.79,1.54,4.25,2.19,3.3,1.47,6.81,2.54,10.47,3.16,2.34,.39,4.74,.6,7.19,.6,6.28,0,12.26-1.34,17.67-3.75,1.46-.65,2.88-1.38,4.25-2.19,1.33-.78,2.62-1.63,3.85-2.54,4.99-3.69,9.17-8.41,12.21-13.85,.75-1.34,1.43-2.72,2.03-4.14,.62-1.46,1.17-2.96,1.63-4.5,1.19-3.96,1.84-8.17,1.84-12.52,0-2.45-.2-4.86-.59-7.19Zm-6.41,21.1c-.56,1.46-1.2,2.87-1.92,4.24-2.91,5.53-7.11,10.29-12.21,13.85-1.27,.89-2.59,1.71-3.97,2.44-1.43,.76-2.91,1.44-4.43,2.03-4.33,1.66-9.04,2.57-13.96,2.57s-9.62-.91-13.96-2.57c-1.53-.58-3.01-1.26-4.43-2.03-1.37-.73-2.7-1.55-3.97-2.44-.67-.47-1.32-.95-1.95-1.46-4.22-3.36-7.72-7.58-10.25-12.39-.72-1.37-1.36-2.78-1.92-4.24-.58-1.51-1.06-3.07-1.45-4.66-.72-2.96-1.1-6.06-1.1-9.24,0-21.56,17.48-39.03,39.03-39.03,12.36,0,23.38,5.75,30.53,14.72,5.32,6.67,8.5,15.12,8.5,24.32,0,3.18-.38,6.28-1.1,9.24-.39,1.59-.87,3.15-1.45,4.66Z"/>
      <path class="cls-6" d="M433.52,91.3c0,3.18-.38,6.28-1.1,9.24-.39,1.59-.87,3.15-1.45,4.66-.56,1.46-1.2,2.87-1.92,4.24-2.91,5.53-7.11,10.29-12.21,13.85-1.27,.89-2.59,1.71-3.97,2.44-1.43,.76-2.91,1.44-4.43,2.03-4.33,1.66-9.04,2.57-13.96,2.57s-9.62-.91-13.96-2.57c-1.53-.58-3.01-1.26-4.43-2.03-1.37-.73-2.7-1.55-3.97-2.44-5.09-3.56-9.3-8.32-12.21-13.85-.72-1.37-1.36-2.78-1.92-4.24-.58-1.51-1.06-3.07-1.45-4.66-.72-2.96-1.1-6.06-1.1-9.24,0-21.56,17.48-39.03,39.03-39.03s39.03,17.48,39.03,39.03Z"/>
      <path class="cls-2" d="M633.21,248.92c-1.05-1.05-2.16-2.02-3.31-2.91-4.64-3.58-10.09-5.85-15.89-6.64-1.51-.2-3.05-.31-4.6-.31h-20.58l-2.01-1.77-5.05-4.45-135.75-119.58c.07-.19,.13-.38,.19-.57,1.62-4.87,2.45-9.95,2.45-15.16,0-6.47-1.27-12.75-3.77-18.66-2.41-5.71-5.87-10.83-10.27-15.23-1.04-1.05-2.13-2.04-3.26-2.98-3.61-3.01-7.62-5.45-11.98-7.29-3.36-1.42-6.84-2.45-10.41-3.07-2.71-.47-5.47-.71-8.26-.71-6.47,0-12.75,1.27-18.66,3.77-5.71,2.41-10.84,5.87-15.23,10.27-4.4,4.4-7.86,9.52-10.27,15.23-2.5,5.92-3.77,12.2-3.77,18.66,0,2.03,.13,4.03,.37,6.02,.09,.75,.2,1.49,.33,2.24,.17,.97,.36,1.93,.59,2.88,.37,1.55,.82,3.08,1.34,4.59l-2.4,2.11-133.35,117.47-5.05,4.45-2.01,1.77h-20.58c-8.99,0-17.44,3.5-23.8,9.86-6.36,6.36-9.86,14.81-9.86,23.8v151.22c0,1.56,.11,3.1,.31,4.61,.03,.24,.07,.48,.11,.72,.75,4.73,2.49,9.21,5.13,13.2,.44,.67,.91,1.32,1.4,1.96,.89,1.16,1.86,2.27,2.91,3.32,1.34,1.34,2.77,2.55,4.29,3.63h456.42c1.51-1.08,2.95-2.29,4.29-3.63,1.63-1.63,3.07-3.4,4.31-5.27,2.59-3.9,4.31-8.29,5.08-12.92,.31-1.84,.46-3.71,.46-5.61v-151.22c0-8.99-3.5-17.45-9.86-23.8Zm-405.13-11.63l5.05-4.45,125.09-110.18,1.08-.95c1.33,2.27,2.84,4.43,4.53,6.46,.39,.47,.79,.93,1.2,1.38,.58,.64,1.17,1.27,1.78,1.88,.44,.44,.89,.88,1.35,1.3,1.08,1,2.19,1.94,3.35,2.83l-110.44,97.29-5.05,4.45-2.01,1.77h-27.93l2.01-1.77ZM425.02,66.98c5.55,4.42,9.87,10.33,12.36,17.12h0c1.53,4.19,2.37,8.71,2.37,13.42,0,2.96-.33,5.85-.96,8.63-.05,.2-.09,.41-.14,.62-.34,1.4-.75,2.76-1.24,4.1-.07,.19-.14,.37-.21,.56-.49,1.28-1.04,2.52-1.65,3.73-.09,.17-.18,.34-.26,.51-2.82,5.37-6.86,9.99-11.74,13.52-.15,.11-.31,.22-.46,.33-1.11,.78-2.26,1.5-3.45,2.16-.17,.1-.35,.19-.52,.28-1.24,.67-2.53,1.27-3.85,1.8-.19,.08-.39,.15-.58,.23-4.33,1.66-9.04,2.57-13.96,2.57s-9.24-.84-13.42-2.37c-.18-.06-.36-.13-.53-.2-1.53-.58-3.01-1.26-4.43-2.03-1.34-.71-2.63-1.51-3.87-2.37-.03-.02-.07-.05-.1-.07-1.21-.84-2.36-1.75-3.46-2.73-1.12-.98-2.18-2.03-3.17-3.14-.53-.59-1.05-1.2-1.54-1.82-1.53-1.92-2.88-3.98-4.03-6.16-.72-1.37-1.36-2.78-1.92-4.24-.58-1.51-1.06-3.07-1.45-4.66-.72-2.96-1.1-6.06-1.1-9.24,0-21.56,17.48-39.03,39.03-39.03,9.19,0,17.64,3.17,24.31,8.49Zm-155.53,170.31l5.05-4.45,104.85-92.36c.87,.43,1.75,.84,2.66,1.22,5.91,2.5,12.19,3.77,18.66,3.77s12.75-1.27,18.66-3.77c.9-.38,1.78-.79,2.66-1.22l104.85,92.36,5.05,4.45,2.01,1.77H267.48l2.01-1.77Zm270.87-4.45l-110.44-97.29c.15-.12,.3-.23,.45-.35,1.48-1.17,2.9-2.43,4.25-3.78,2.93-2.93,5.45-6.19,7.51-9.72l126.17,111.14,5.05,4.45,2.01,1.77h-27.93l-2.01-1.77-5.05-4.45ZM192.02,448.7c-3.45,0-6.74-.71-9.73-1.99-2.46-1.05-4.72-2.49-6.69-4.24-1.48-1.31-2.8-2.79-3.92-4.42-2.78-4-4.42-8.87-4.42-14.11v-151.22c0-13.67,11.08-24.76,24.76-24.76h417.39c5.24,0,10.11,1.63,14.11,4.41,3.8,2.64,6.82,6.31,8.66,10.61,1.28,2.99,1.99,6.28,1.99,9.73v151.22c0,1.93-.22,3.81-.64,5.61-1.18,5.09-3.93,9.57-7.7,12.92-4.37,3.88-10.12,6.23-16.42,6.23H192.02Z"/>
      <g>
        <path class="cls-5" d="M356.5,112.45l3.42-3.01c-.72-1.37-1.36-2.78-1.92-4.24-.58-1.51-1.06-3.07-1.45-4.66l-3.72,3.27-3.65,3.21-142.82,125.81-3.51,3.09-1.55,1.36-5.05,4.45h13.47l10.11-8.91,133.24-117.36,3.43-3.02Z"/>
        <path class="cls-5" d="M376.1,125.73c-1.37-.73-2.7-1.55-3.97-2.44l-3.41,3.01-3.43,3.02-117.51,103.51-5.06,4.45-5.05,4.45h13.48l5.05-4.45,5.05-4.45,111.92-98.59,3.65-3.22,3.71-3.27c-1.53-.58-3.01-1.26-4.43-2.03Z"/>
      </g>
      <g>
        <path class="cls-5" d="M541.2,232.83l-117.51-103.51-3.43-3.02-3.41-3.01c-1.27,.89-2.59,1.71-3.97,2.44-1.43,.76-2.91,1.44-4.43,2.03l3.71,3.27,3.65,3.22,111.92,98.59,10.11,8.91h13.48l-5.05-4.45-5.06-4.45Z"/>
        <path class="cls-5" d="M587.66,237.29l-1.55-1.36-3.51-3.09-142.82-125.81-3.65-3.21-3.72-3.27c-.39,1.59-.87,3.15-1.45,4.66-.56,1.46-1.2,2.87-1.92,4.24l3.42,3.01,3.43,3.02,133.24,117.36,10.11,8.91h13.47l-5.05-4.45Z"/>
      </g>
      <path class="cls-5" d="M532.78,237.29H256.19l-5.05,4.45h286.7l-5.05-4.45Zm97.12,8.73c-.89-1.16-1.86-2.27-2.91-3.32-6.36-6.36-14.81-9.86-23.8-9.86H185.79c-8.99,0-17.44,3.5-23.8,9.86-6.36,6.36-9.86,14.81-9.86,23.8v151.22c0,.98,.04,1.96,.13,2.93,.26,3.08,.94,6.07,2.01,8.91,1.66,4.44,4.27,8.51,7.72,11.97,.33,.33,.66,.65,1,.95,.75,.69,1.52,1.35,2.32,1.96,5.85,4.51,12.98,6.95,20.49,6.95h417.39c8.53,0,16.58-3.15,22.81-8.91,.34-.31,.67-.63,1-.95,3.45-3.45,6.06-7.52,7.72-11.97,1.07-2.84,1.75-5.83,2.01-8.91,.08-.97,.13-1.95,.13-2.93v-151.22c0-7.51-2.44-14.64-6.94-20.48ZM171.68,438.06c-6.43-4.47-10.64-11.91-10.64-20.34v-151.22c0-13.67,11.08-24.76,24.76-24.76h417.39c8.43,0,15.87,4.21,20.34,10.64,2.79,4,4.42,8.87,4.42,14.12v151.22c0,13.67-11.08,24.76-24.76,24.76H185.79c-5.25,0-10.11-1.63-14.11-4.42Z"/>
      <path class="cls-5" d="M438.66,72.63c-1.84-4.35-4.29-8.37-7.3-11.98-.93-1.12-1.92-2.21-2.97-3.25-4.4-4.4-9.52-7.85-15.23-10.27-5.91-2.5-12.19-3.77-18.66-3.77s-12.75,1.27-18.66,3.77c-5.71,2.41-10.84,5.87-15.23,10.27-4.4,4.4-7.86,9.52-10.27,15.23-2.5,5.92-3.77,12.2-3.77,18.66,0,5.41,.89,10.69,2.64,15.73,.34,.99,.72,1.96,1.13,2.93,.2,.49,.42,.97,.64,1.44,.63,1.36,1.31,2.68,2.06,3.96,.02,.03,.04,.07,.06,.1,1.49,2.54,3.2,4.94,5.15,7.18,.75,.87,1.54,1.72,2.37,2.54,1.04,1.04,2.13,2.03,3.25,2.96,.48,.4,.96,.78,1.45,1.16,1.21,.94,2.47,1.81,3.76,2.62,1.33,.84,2.71,1.61,4.12,2.31,.87,.43,1.75,.84,2.66,1.22,5.91,2.5,12.19,3.77,18.66,3.77s12.75-1.27,18.66-3.77c.9-.38,1.78-.79,2.66-1.22,1.41-.7,2.79-1.47,4.12-2.31,1.3-.81,2.55-1.68,3.76-2.62,1.64-1.26,3.21-2.64,4.7-4.13,2.93-2.93,5.45-6.19,7.51-9.72,.77-1.32,1.48-2.67,2.12-4.07,.22-.48,.43-.96,.64-1.44,.41-.97,.79-1.94,1.13-2.93,1.75-5.04,2.64-10.32,2.64-15.73,0-6.47-1.27-12.75-3.77-18.66Zm-58.12,55.13c-1.53-.58-3.01-1.26-4.43-2.03-1.37-.73-2.7-1.55-3.97-2.44-.67-.47-1.32-.95-1.95-1.46-4.22-3.36-7.72-7.58-10.25-12.39-.72-1.37-1.36-2.78-1.92-4.24-.58-1.51-1.06-3.07-1.45-4.66-.72-2.96-1.1-6.06-1.1-9.24,0-21.56,17.48-39.03,39.03-39.03,12.36,0,23.38,5.75,30.53,14.72,5.32,6.67,8.5,15.12,8.5,24.32,0,3.18-.38,6.28-1.1,9.24-.39,1.59-.87,3.15-1.45,4.66-.56,1.46-1.2,2.87-1.92,4.24-2.91,5.53-7.11,10.29-12.21,13.85-1.27,.89-2.59,1.71-3.97,2.44-1.43,.76-2.91,1.44-4.43,2.03-4.33,1.66-9.04,2.57-13.96,2.57s-9.62-.91-13.96-2.57Z"/>
      <g>
        <path class="cls-5" d="M718.35,446.93c0,2.46-2,4.45-4.45,4.45H75.72c-2.46,0-4.45-1.99-4.45-4.45s2-4.45,4.45-4.45H713.89c2.46,0,4.45,1.99,4.45,4.45Z"/>
        <path class="cls-5" d="M57.35,451.38h-20.28c-2.46,0-4.45-1.99-4.45-4.45s1.99-4.45,4.45-4.45h20.28c2.46,0,4.45,1.99,4.45,4.45s-1.99,4.45-4.45,4.45Z"/>
        <path class="cls-5" d="M157.22,429.55h-20.28c-2.46,0-4.45-1.99-4.45-4.45s1.99-4.45,4.45-4.45h20.28c2.46,0,4.45,1.99,4.45,4.45s-1.99,4.45-4.45,4.45Z"/>
        <path class="cls-5" d="M118.57,429.55h-20.28c-2.46,0-4.45-1.99-4.45-4.45s1.99-4.45,4.45-4.45h20.28c2.46,0,4.45,1.99,4.45,4.45s-1.99,4.45-4.45,4.45Z"/>
        <path class="cls-5" d="M652.67,429.55h-20.28c-2.46,0-4.45-1.99-4.45-4.45s1.99-4.45,4.45-4.45h20.28c2.46,0,4.45,1.99,4.45,4.45s-1.99,4.45-4.45,4.45Z"/>
        <path class="cls-5" d="M691.33,429.55h-20.28c-2.46,0-4.45-1.99-4.45-4.45s1.99-4.45,4.45-4.45h20.28c2.46,0,4.45,1.99,4.45,4.45s-1.99,4.45-4.45,4.45Z"/>
        <path class="cls-5" d="M752.55,451.38h-20.28c-2.46,0-4.45-1.99-4.45-4.45s1.99-4.45,4.45-4.45h20.28c2.46,0,4.45,1.99,4.45,4.45s-1.99,4.45-4.45,4.45Z"/>
      </g>
      <g>
        <path class="cls-1" d="M235.65,373.12c-5,0-9.39-1.07-13.18-3.2-3.79-2.13-6.74-5.17-8.86-9.11-2.12-3.94-3.18-8.62-3.18-14.03s1.13-10.48,3.4-14.43c2.27-3.95,5.3-6.96,9.11-9.02,3.8-2.06,8.02-3.09,12.65-3.09,3.04,0,5.87,.43,8.48,1.3,2.61,.86,4.94,2.09,6.96,3.68,2.03,1.59,3.66,3.46,4.89,5.61,1.23,2.15,1.99,4.52,2.26,7.1h-14.1c-.21-.87-.55-1.66-1.02-2.35-.47-.69-1.06-1.27-1.76-1.75s-1.51-.83-2.42-1.07c-.91-.24-1.92-.36-3.02-.36-2.33,0-4.32,.56-5.98,1.68s-2.92,2.74-3.78,4.85c-.86,2.12-1.3,4.66-1.3,7.64s.41,5.6,1.24,7.74c.83,2.14,2.06,3.78,3.68,4.92,1.62,1.14,3.65,1.71,6.07,1.71,2.12,0,3.89-.31,5.3-.93s2.48-1.5,3.18-2.64c.7-1.14,1.05-2.48,1.05-4.03l2.42,.28h-11.75v-9.95h22.81v7.12c0,4.7-.99,8.71-2.97,12.04-1.98,3.33-4.72,5.87-8.21,7.64-3.49,1.76-7.48,2.64-11.97,2.64Z"/>
        <path class="cls-1" d="M264.74,372.42v-51.49h37.11v11.27h-23.15v8.71h21.22v10.99h-21.22v9.26h23.02v11.27h-36.98Z"/>
        <path class="cls-1" d="M329.16,373.05c-4.47,0-8.37-.66-11.7-1.99-3.33-1.32-5.92-3.37-7.76-6.13-1.84-2.76-2.78-6.3-2.8-10.61h13.27c.09,1.57,.49,2.89,1.19,3.97,.7,1.08,1.69,1.9,2.97,2.45,1.28,.55,2.82,.83,4.61,.83,1.5,0,2.75-.18,3.77-.55,1.01-.37,1.78-.88,2.3-1.54,.52-.66,.78-1.41,.78-2.26,0-.78-.25-1.47-.74-2.06s-1.31-1.12-2.44-1.61-2.65-.92-4.56-1.31l-5.18-1.11c-4.54-.97-8.12-2.62-10.73-4.96-2.61-2.34-3.92-5.52-3.92-9.56,0-3.27,.89-6.13,2.66-8.59,1.77-2.45,4.22-4.37,7.34-5.74s6.72-2.06,10.8-2.06,7.77,.7,10.8,2.09c3.03,1.39,5.37,3.35,7.02,5.88,1.65,2.52,2.48,5.47,2.51,8.83h-13.41c-.12-1.68-.73-2.99-1.85-3.92-1.12-.93-2.81-1.4-5.06-1.4-1.43,0-2.6,.17-3.52,.5-.92,.33-1.6,.8-2.04,1.4-.44,.6-.66,1.28-.66,2.04,0,.81,.24,1.52,.71,2.13,.47,.61,1.22,1.14,2.25,1.59,1.02,.45,2.34,.85,3.96,1.19l4.22,.9c2.83,.6,5.27,1.39,7.31,2.38,2.04,.99,3.71,2.15,5.01,3.47,1.3,1.33,2.26,2.82,2.87,4.48,.61,1.66,.92,3.47,.92,5.42,0,3.39-.84,6.26-2.51,8.62-1.67,2.36-4.06,4.15-7.17,5.37-3.11,1.22-6.84,1.83-11.2,1.83Z"/>
        <path class="cls-1" d="M354.8,372.42v-51.49h13.96v40.23h20.8v11.27h-34.77Z"/>
        <path class="cls-1" d="M417.49,373.12c-4.68,0-8.91-1.01-12.7-3.04s-6.79-5.01-9-8.93-3.32-8.74-3.32-14.43,1.11-10.57,3.32-14.51c2.21-3.94,5.21-6.92,9-8.93s8.02-3.02,12.7-3.02,8.9,1.01,12.68,3.02,6.78,4.99,9,8.93c2.22,3.94,3.33,8.78,3.33,14.51s-1.11,10.54-3.33,14.46c-2.22,3.93-5.23,6.9-9,8.92-3.78,2.02-8.01,3.02-12.68,3.02Zm0-12.16c2.33,0,4.28-.55,5.86-1.64,1.58-1.09,2.77-2.7,3.58-4.82,.81-2.12,1.21-4.71,1.21-7.78s-.4-5.7-1.21-7.83c-.81-2.13-2-3.74-3.58-4.84-1.58-1.09-3.53-1.64-5.86-1.64s-4.25,.55-5.82,1.64c-1.58,1.09-2.78,2.71-3.59,4.84-.82,2.13-1.23,4.74-1.23,7.83s.41,5.66,1.23,7.78,2.02,3.73,3.59,4.82c1.58,1.09,3.52,1.64,5.82,1.64Z"/>
        <path class="cls-1" d="M444.62,332.2v-11.27h44.72v11.27h-15.48v40.23h-13.75v-40.23h-15.48Z"/>
        <path class="cls-1" d="M494.03,372.42v-51.49h37.12v11.27h-23.15v8.71h21.22v10.99h-21.22v9.26h23.02v11.27h-36.98Z"/>
        <path class="cls-1" d="M582.02,320.93v51.49h-11.61l-18.59-27.02h-.35v27.02h-13.96v-51.49h11.89l18.25,26.96h.41v-26.96h13.96Z"/>
      </g>
      <g>
        <path class="cls-6" d="M231.12,369.72c-5,0-9.39-1.07-13.18-3.2-3.79-2.13-6.74-5.17-8.86-9.11-2.12-3.94-3.18-8.62-3.18-14.03s1.13-10.48,3.4-14.43c2.27-3.95,5.3-6.96,9.11-9.02,3.8-2.06,8.02-3.09,12.65-3.09,3.04,0,5.87,.43,8.48,1.3,2.61,.86,4.94,2.09,6.96,3.68,2.03,1.59,3.66,3.46,4.89,5.61,1.23,2.15,1.99,4.52,2.26,7.1h-14.1c-.21-.87-.55-1.66-1.02-2.35-.47-.69-1.06-1.27-1.76-1.75s-1.51-.83-2.42-1.07c-.91-.24-1.92-.36-3.02-.36-2.33,0-4.32,.56-5.98,1.68s-2.92,2.74-3.78,4.85c-.86,2.12-1.3,4.66-1.3,7.64s.41,5.6,1.24,7.74c.83,2.14,2.06,3.78,3.68,4.92,1.62,1.14,3.65,1.71,6.07,1.71,2.12,0,3.89-.31,5.3-.93s2.48-1.5,3.18-2.64c.7-1.14,1.05-2.48,1.05-4.03l2.42,.28h-11.75v-9.95h22.81v7.12c0,4.7-.99,8.71-2.97,12.04-1.98,3.33-4.72,5.87-8.21,7.64-3.49,1.76-7.48,2.64-11.97,2.64Z"/>
        <path class="cls-6" d="M260.22,369.03v-51.49h37.11v11.27h-23.15v8.71h21.22v10.99h-21.22v9.26h23.02v11.27h-36.98Z"/>
        <path class="cls-6" d="M324.64,369.65c-4.47,0-8.37-.66-11.7-1.99-3.33-1.32-5.92-3.37-7.76-6.13-1.84-2.76-2.78-6.3-2.8-10.61h13.27c.09,1.57,.49,2.89,1.19,3.97,.7,1.08,1.69,1.9,2.97,2.45,1.28,.55,2.82,.83,4.61,.83,1.5,0,2.75-.18,3.77-.55,1.01-.37,1.78-.88,2.3-1.54,.52-.66,.78-1.41,.78-2.26,0-.78-.25-1.47-.74-2.06s-1.31-1.12-2.44-1.61-2.65-.92-4.56-1.31l-5.18-1.11c-4.54-.97-8.12-2.62-10.73-4.96-2.61-2.34-3.92-5.52-3.92-9.56,0-3.27,.89-6.13,2.66-8.59,1.77-2.45,4.22-4.37,7.34-5.74s6.72-2.06,10.8-2.06,7.77,.7,10.8,2.09c3.03,1.39,5.37,3.35,7.02,5.88,1.65,2.52,2.48,5.47,2.51,8.83h-13.41c-.12-1.68-.73-2.99-1.85-3.92-1.12-.93-2.81-1.4-5.06-1.4-1.43,0-2.6,.17-3.52,.5-.92,.33-1.6,.8-2.04,1.4-.44,.6-.66,1.28-.66,2.04,0,.81,.24,1.52,.71,2.13,.47,.61,1.22,1.14,2.25,1.59,1.02,.45,2.34,.85,3.96,1.19l4.22,.9c2.83,.6,5.27,1.39,7.31,2.38,2.04,.99,3.71,2.15,5.01,3.47,1.3,1.33,2.26,2.82,2.87,4.48,.61,1.66,.92,3.47,.92,5.42,0,3.39-.84,6.26-2.51,8.62-1.67,2.36-4.06,4.15-7.17,5.37-3.11,1.22-6.84,1.83-11.2,1.83Z"/>
        <path class="cls-6" d="M350.28,369.03v-51.49h13.96v40.23h20.8v11.27h-34.77Z"/>
        <path class="cls-6" d="M412.96,369.72c-4.68,0-8.91-1.01-12.7-3.04s-6.79-5.01-9-8.93-3.32-8.74-3.32-14.43,1.11-10.57,3.32-14.51c2.21-3.94,5.21-6.92,9-8.93s8.02-3.02,12.7-3.02,8.9,1.01,12.68,3.02,6.78,4.99,9,8.93c2.22,3.94,3.33,8.78,3.33,14.51s-1.11,10.54-3.33,14.46c-2.22,3.93-5.23,6.9-9,8.92-3.78,2.02-8.01,3.02-12.68,3.02Zm0-12.16c2.33,0,4.28-.55,5.86-1.64,1.58-1.09,2.77-2.7,3.58-4.82,.81-2.12,1.21-4.71,1.21-7.78s-.4-5.7-1.21-7.83c-.81-2.13-2-3.74-3.58-4.84-1.58-1.09-3.53-1.64-5.86-1.64s-4.25,.55-5.82,1.64c-1.58,1.09-2.78,2.71-3.59,4.84-.82,2.13-1.23,4.74-1.23,7.83s.41,5.66,1.23,7.78,2.02,3.73,3.59,4.82c1.58,1.09,3.52,1.64,5.82,1.64Z"/>
        <path class="cls-6" d="M440.09,328.81v-11.27h44.72v11.27h-15.48v40.23h-13.75v-40.23h-15.48Z"/>
        <path class="cls-6" d="M489.51,369.03v-51.49h37.12v11.27h-23.15v8.71h21.22v10.99h-21.22v9.26h23.02v11.27h-36.98Z"/>
        <path class="cls-6" d="M577.5,317.54v51.49h-11.61l-18.59-27.02h-.35v27.02h-13.96v-51.49h11.89l18.25,26.96h.41v-26.96h13.96Z"/>
      </g>
    </g>
  </g>
</svg>